# Blender 4.0.1
# www.blender.org
mtllib test_octagon.mtl
o Circle
v 0.000000 0.382683 -0.923880
v -0.000000 -0.382683 -0.923880
v -0.000000 -0.923880 -0.382683
v -0.000000 -0.923880 0.382683
v -0.000000 -0.382683 0.923880
v 0.000000 0.382683 0.923880
v 0.000000 0.923880 0.382683
v 0.000000 0.923880 -0.382683
vn -1.0000 -0.0000 -0.0000
vt 0.000100 0.292935
vt 0.292935 0.000100
vt 0.707065 0.000100
vt 0.999900 0.292935
vt 0.999900 0.707065
vt 0.707065 0.999900
vt 0.292935 0.999900
vt 0.000100 0.707065
s 0
usemtl Material.001
f 2/1/1 3/2/1 4/3/1 5/4/1 6/5/1 7/6/1 8/7/1 1/8/1
