# Blender 4.0.1
# www.blender.org
o Cube
v 0.000000 1.000000 0.000000
v 1.000000 -1.000000 -1.000000
v 1.000000 -1.000000 1.000000
v -1.000000 -1.000000 -1.000000
v -1.000000 -1.000000 1.000000
vn -0.0000 0.4472 0.8944
vn -0.8944 0.4472 -0.0000
vn -0.0000 -1.0000 -0.0000
vn 0.8944 0.4472 -0.0000
vn -0.0000 0.4472 -0.8944
vt 1.000000 0.000000
vt 0.500000 1.000000
vt 0.000000 0.000000
vt 0.000000 0.000000
vt 1.000000 1.000000
vt 0.000000 1.000000
s 0
f 3/1/1 1/2/1 5/3/1
f 5/1/2 1/2/2 4/3/2
f 4/4/3 2/1/3 3/5/3 5/6/3
f 2/1/4 1/2/4 3/3/4
f 4/1/5 1/2/5 2/3/5
